<svg xmlns="http://www.w3.org/2000/svg" width="760" height="480" viewBox="0 0 760 480" font-family="-apple-system, Segoe UI, sans-serif">
<rect width="760" height="480" fill="#ffffff"/>
<text x="380.0" y="24" text-anchor="middle" font-size="16" font-weight="600" fill="#222">Thread scaling, NEON kernel at N = 32,768</text>
<line x1="70" y1="379.6" x2="736" y2="379.6" stroke="#e3e3e3"/>
<text x="62" y="383.6" text-anchor="end" font-size="11" fill="#555">1×</text>
<line x1="70" y1="335.1" x2="736" y2="335.1" stroke="#e3e3e3"/>
<text x="62" y="339.1" text-anchor="end" font-size="11" fill="#555">2×</text>
<line x1="70" y1="290.7" x2="736" y2="290.7" stroke="#e3e3e3"/>
<text x="62" y="294.7" text-anchor="end" font-size="11" fill="#555">3×</text>
<line x1="70" y1="246.2" x2="736" y2="246.2" stroke="#e3e3e3"/>
<text x="62" y="250.2" text-anchor="end" font-size="11" fill="#555">4×</text>
<line x1="70" y1="201.8" x2="736" y2="201.8" stroke="#e3e3e3"/>
<text x="62" y="205.8" text-anchor="end" font-size="11" fill="#555">5×</text>
<line x1="70" y1="157.3" x2="736" y2="157.3" stroke="#e3e3e3"/>
<text x="62" y="161.3" text-anchor="end" font-size="11" fill="#555">6×</text>
<line x1="70" y1="112.9" x2="736" y2="112.9" stroke="#e3e3e3"/>
<text x="62" y="116.9" text-anchor="end" font-size="11" fill="#555">7×</text>
<line x1="70" y1="68.4" x2="736" y2="68.4" stroke="#e3e3e3"/>
<text x="62" y="72.4" text-anchor="end" font-size="11" fill="#555">8×</text>
<text x="70.0" y="442" text-anchor="middle" font-size="11" fill="#555">1</text>
<text x="165.1" y="442" text-anchor="middle" font-size="11" fill="#555">2</text>
<text x="355.4" y="442" text-anchor="middle" font-size="11" fill="#555">4</text>
<text x="545.7" y="442" text-anchor="middle" font-size="11" fill="#555">6</text>
<text x="736.0" y="442" text-anchor="middle" font-size="11" fill="#555">8</text>
<line x1="70.0" y1="379.6" x2="736.0" y2="68.4" stroke="#bbb" stroke-dasharray="5,4"/>
<text x="730.0" y="84.4" text-anchor="end" font-size="11" fill="#888">ideal</text>
<polyline points="70.0,379.6 165.1,341.8 355.4,283.2 545.7,273.9 736.0,263.9" fill="none" stroke="#16a085" stroke-width="2.2"/>
<circle cx="70.0" cy="379.6" r="3.4" fill="#16a085"/>
<circle cx="165.1" cy="341.8" r="3.4" fill="#16a085"/>
<circle cx="355.4" cy="283.2" r="3.4" fill="#16a085"/>
<circle cx="545.7" cy="273.9" r="3.4" fill="#16a085"/>
<circle cx="736.0" cy="263.9" r="3.4" fill="#16a085"/>
<text x="18" y="232.0" font-size="12" fill="#333" transform="rotate(-90 18 232.0)" text-anchor="middle">speedup vs 1 thread</text>
<text x="403.0" y="468" text-anchor="middle" font-size="12" fill="#333">threads</text>
</svg>