<svg xmlns="http://www.w3.org/2000/svg" width="760" height="480" viewBox="0 0 760 480" font-family="-apple-system, Segoe UI, sans-serif">
<rect width="760" height="480" fill="#ffffff"/>
<text x="380.0" y="24" text-anchor="middle" font-size="16" font-weight="600" fill="#222">Force computation cost vs N (log–log, lower is better)</text>
<line x1="70" y1="380.4" x2="736" y2="380.4" stroke="#e3e3e3"/>
<text x="62" y="384.4" text-anchor="end" font-size="11" fill="#555">1</text>
<line x1="70" y1="280.7" x2="736" y2="280.7" stroke="#e3e3e3"/>
<text x="62" y="284.7" text-anchor="end" font-size="11" fill="#555">10</text>
<line x1="70" y1="181.1" x2="736" y2="181.1" stroke="#e3e3e3"/>
<text x="62" y="185.1" text-anchor="end" font-size="11" fill="#555">100</text>
<line x1="70" y1="81.5" x2="736" y2="81.5" stroke="#e3e3e3"/>
<text x="62" y="85.5" text-anchor="end" font-size="11" fill="#555">1000</text>
<line x1="70.0" y1="40" x2="70.0" y2="424" stroke="#f0f0f0"/>
<text x="70.0" y="442" text-anchor="middle" font-size="11" fill="#555">1k</text>
<line x1="203.2" y1="40" x2="203.2" y2="424" stroke="#f0f0f0"/>
<text x="203.2" y="442" text-anchor="middle" font-size="11" fill="#555">4k</text>
<line x1="336.4" y1="40" x2="336.4" y2="424" stroke="#f0f0f0"/>
<text x="336.4" y="442" text-anchor="middle" font-size="11" fill="#555">16k</text>
<line x1="469.6" y1="40" x2="469.6" y2="424" stroke="#f0f0f0"/>
<text x="469.6" y="442" text-anchor="middle" font-size="11" fill="#555">64k</text>
<line x1="536.2" y1="40" x2="536.2" y2="424" stroke="#f0f0f0"/>
<text x="536.2" y="442" text-anchor="middle" font-size="11" fill="#555">128k</text>
<line x1="602.8" y1="40" x2="602.8" y2="424" stroke="#f0f0f0"/>
<text x="602.8" y="442" text-anchor="middle" font-size="11" fill="#555">256k</text>
<line x1="736.0" y1="40" x2="736.0" y2="424" stroke="#f0f0f0"/>
<text x="736.0" y="442" text-anchor="middle" font-size="11" fill="#555">1024k</text>
<text x="18" y="232.0" font-size="12" fill="#333" transform="rotate(-90 18 232.0)" text-anchor="middle">ms / step</text>
<text x="403.0" y="468" text-anchor="middle" font-size="12" fill="#333">bodies (N)</text>
<polyline points="70.0,380.7 203.2,258.9 336.4,137.6" fill="none" stroke="#c0392b" stroke-width="2.2"/>
<circle cx="70.0" cy="380.7" r="3.4" fill="#c0392b"/>
<circle cx="203.2" cy="258.9" r="3.4" fill="#c0392b"/>
<circle cx="336.4" cy="137.6" r="3.4" fill="#c0392b"/>
<rect x="84" y="45" width="12" height="12" fill="#c0392b"/>
<text x="102" y="56" font-size="12" fill="#333">naive O(n²), 1 thread</text>
<polyline points="203.2,319.4 336.4,200.4 469.6,78.1" fill="none" stroke="#e67e22" stroke-width="2.2"/>
<circle cx="203.2" cy="319.4" r="3.4" fill="#e67e22"/>
<circle cx="336.4" cy="200.4" r="3.4" fill="#e67e22"/>
<circle cx="469.6" cy="78.1" r="3.4" fill="#e67e22"/>
<rect x="84" y="65" width="12" height="12" fill="#e67e22"/>
<text x="102" y="76" font-size="12" fill="#333">naive O(n²), threaded</text>
<polyline points="70.0,409.1 203.2,296.0 336.4,175.2 469.6,55.9" fill="none" stroke="#2980b9" stroke-width="2.2"/>
<circle cx="70.0" cy="409.1" r="3.4" fill="#2980b9"/>
<circle cx="203.2" cy="296.0" r="3.4" fill="#2980b9"/>
<circle cx="336.4" cy="175.2" r="3.4" fill="#2980b9"/>
<circle cx="469.6" cy="55.9" r="3.4" fill="#2980b9"/>
<rect x="84" y="85" width="12" height="12" fill="#2980b9"/>
<text x="102" y="96" font-size="12" fill="#333">NEON SIMD, 1 thread</text>
<polyline points="203.2,353.9 336.4,237.5 469.6,117.7 536.2,54.9" fill="none" stroke="#16a085" stroke-width="2.2"/>
<circle cx="203.2" cy="353.9" r="3.4" fill="#16a085"/>
<circle cx="336.4" cy="237.5" r="3.4" fill="#16a085"/>
<circle cx="469.6" cy="117.7" r="3.4" fill="#16a085"/>
<circle cx="536.2" cy="54.9" r="3.4" fill="#16a085"/>
<rect x="84" y="105" width="12" height="12" fill="#16a085"/>
<text x="102" y="116" font-size="12" fill="#333">NEON SIMD, threaded</text>
<polyline points="336.4,266.0 469.6,196.7 602.8,132.6 736.0,64.5" fill="none" stroke="#8e44ad" stroke-width="2.2"/>
<circle cx="336.4" cy="266.0" r="3.4" fill="#8e44ad"/>
<circle cx="469.6" cy="196.7" r="3.4" fill="#8e44ad"/>
<circle cx="602.8" cy="132.6" r="3.4" fill="#8e44ad"/>
<circle cx="736.0" cy="64.5" r="3.4" fill="#8e44ad"/>
<rect x="84" y="125" width="12" height="12" fill="#8e44ad"/>
<text x="102" y="136" font-size="12" fill="#333">Barnes-Hut θ=0.5, threaded</text>
</svg>