<svg xmlns="http://www.w3.org/2000/svg" width="760" height="480" viewBox="0 0 760 480" font-family="-apple-system, Segoe UI, sans-serif">
<rect width="760" height="480" fill="#ffffff"/>
<text x="380.0" y="24" text-anchor="middle" font-size="16" font-weight="600" fill="#222">Force computation cost vs N (log–log, lower is better)</text>
<line x1="70" y1="419.1" x2="736" y2="419.1" stroke="#e3e3e3"/>
<text x="62" y="423.1" text-anchor="end" font-size="11" fill="#555">1</text>
<line x1="70" y1="322.3" x2="736" y2="322.3" stroke="#e3e3e3"/>
<text x="62" y="326.3" text-anchor="end" font-size="11" fill="#555">10</text>
<line x1="70" y1="225.5" x2="736" y2="225.5" stroke="#e3e3e3"/>
<text x="62" y="229.5" text-anchor="end" font-size="11" fill="#555">100</text>
<line x1="70" y1="128.7" x2="736" y2="128.7" stroke="#e3e3e3"/>
<text x="62" y="132.7" text-anchor="end" font-size="11" fill="#555">1000</text>
<line x1="70.0" y1="40" x2="70.0" y2="424" stroke="#f0f0f0"/>
<text x="70.0" y="442" text-anchor="middle" font-size="11" fill="#555">1k</text>
<line x1="203.2" y1="40" x2="203.2" y2="424" stroke="#f0f0f0"/>
<text x="203.2" y="442" text-anchor="middle" font-size="11" fill="#555">4k</text>
<line x1="336.4" y1="40" x2="336.4" y2="424" stroke="#f0f0f0"/>
<text x="336.4" y="442" text-anchor="middle" font-size="11" fill="#555">16k</text>
<line x1="469.6" y1="40" x2="469.6" y2="424" stroke="#f0f0f0"/>
<text x="469.6" y="442" text-anchor="middle" font-size="11" fill="#555">64k</text>
<line x1="536.2" y1="40" x2="536.2" y2="424" stroke="#f0f0f0"/>
<text x="536.2" y="442" text-anchor="middle" font-size="11" fill="#555">128k</text>
<line x1="602.8" y1="40" x2="602.8" y2="424" stroke="#f0f0f0"/>
<text x="602.8" y="442" text-anchor="middle" font-size="11" fill="#555">256k</text>
<line x1="736.0" y1="40" x2="736.0" y2="424" stroke="#f0f0f0"/>
<text x="736.0" y="442" text-anchor="middle" font-size="11" fill="#555">1024k</text>
<text x="18" y="232.0" font-size="12" fill="#333" transform="rotate(-90 18 232.0)" text-anchor="middle">ms / step</text>
<text x="403.0" y="468" text-anchor="middle" font-size="12" fill="#333">bodies (N)</text>
<polyline points="70.0,395.6 203.2,278.7 336.4,161.6" fill="none" stroke="#c0392b" stroke-width="2.2"/>
<circle cx="70.0" cy="395.6" r="3.4" fill="#c0392b"/>
<circle cx="203.2" cy="278.7" r="3.4" fill="#c0392b"/>
<circle cx="336.4" cy="161.6" r="3.4" fill="#c0392b"/>
<rect x="84" y="45" width="12" height="12" fill="#c0392b"/>
<text x="102" y="56" font-size="12" fill="#333">naive O(n²), 1 thread</text>
<polyline points="203.2,345.8 336.4,229.4 469.6,91.5" fill="none" stroke="#e67e22" stroke-width="2.2"/>
<circle cx="203.2" cy="345.8" r="3.4" fill="#e67e22"/>
<circle cx="336.4" cy="229.4" r="3.4" fill="#e67e22"/>
<circle cx="469.6" cy="91.5" r="3.4" fill="#e67e22"/>
<rect x="84" y="65" width="12" height="12" fill="#e67e22"/>
<text x="102" y="76" font-size="12" fill="#333">naive O(n²), threaded</text>
<polyline points="70.0,409.5 203.2,301.4 336.4,197.4 469.6,81.5" fill="none" stroke="#2980b9" stroke-width="2.2"/>
<circle cx="70.0" cy="409.5" r="3.4" fill="#2980b9"/>
<circle cx="203.2" cy="301.4" r="3.4" fill="#2980b9"/>
<circle cx="336.4" cy="197.4" r="3.4" fill="#2980b9"/>
<circle cx="469.6" cy="81.5" r="3.4" fill="#2980b9"/>
<rect x="84" y="85" width="12" height="12" fill="#2980b9"/>
<text x="102" y="96" font-size="12" fill="#333">NEON SIMD, 1 thread</text>
<polyline points="203.2,385.2 336.4,245.0 469.6,109.5 536.2,54.5" fill="none" stroke="#16a085" stroke-width="2.2"/>
<circle cx="203.2" cy="385.2" r="3.4" fill="#16a085"/>
<circle cx="336.4" cy="245.0" r="3.4" fill="#16a085"/>
<circle cx="469.6" cy="109.5" r="3.4" fill="#16a085"/>
<circle cx="536.2" cy="54.5" r="3.4" fill="#16a085"/>
<rect x="84" y="105" width="12" height="12" fill="#16a085"/>
<text x="102" y="116" font-size="12" fill="#333">NEON SIMD, threaded</text>
<polyline points="336.4,261.2 469.6,195.3 602.8,133.3 736.0,70.0" fill="none" stroke="#8e44ad" stroke-width="2.2"/>
<circle cx="336.4" cy="261.2" r="3.4" fill="#8e44ad"/>
<circle cx="469.6" cy="195.3" r="3.4" fill="#8e44ad"/>
<circle cx="602.8" cy="133.3" r="3.4" fill="#8e44ad"/>
<circle cx="736.0" cy="70.0" r="3.4" fill="#8e44ad"/>
<rect x="84" y="125" width="12" height="12" fill="#8e44ad"/>
<text x="102" y="136" font-size="12" fill="#333">Barnes-Hut θ=0.5, threaded</text>
</svg>